<svg xmlns="http://www.w3.org/2000/svg" height="256" width="256" viewBox="0 0 29 29"><path fill="#FFFFFF" d="M0,0 h29v29H0z" shape-rendering="crispEdges"/><path fill="#000000" d="M0 0h7v1H0zM13 0h1v1H13zM19 0h2v1H19zM22,0 h7v1H22zM0 1h1v1H0zM6 1h1v1H6zM10 1h1v1H10zM13 1h6v1H13zM20 1h1v1H20zM22 1h1v1H22zM28,1 h1v1H28zM0 2h1v1H0zM2 2h3v1H2zM6 2h1v1H6zM8 2h2v1H8zM12 2h1v1H12zM15 2h1v1H15zM18 2h1v1H18zM20 2h1v1H20zM22 2h1v1H22zM24 2h3v1H24zM28,2 h1v1H28zM0 3h1v1H0zM2 3h3v1H2zM6 3h1v1H6zM8 3h1v1H8zM10 3h1v1H10zM12 3h3v1H12zM16 3h2v1H16zM22 3h1v1H22zM24 3h3v1H24zM28,3 h1v1H28zM0 4h1v1H0zM2 4h3v1H2zM6 4h1v1H6zM8 4h1v1H8zM11 4h2v1H11zM16 4h1v1H16zM18 4h3v1H18zM22 4h1v1H22zM24 4h3v1H24zM28,4 h1v1H28zM0 5h1v1H0zM6 5h1v1H6zM8 5h2v1H8zM11 5h2v1H11zM15 5h1v1H15zM17 5h1v1H17zM22 5h1v1H22zM28,5 h1v1H28zM0 6h7v1H0zM8 6h1v1H8zM10 6h1v1H10zM12 6h1v1H12zM14 6h1v1H14zM16 6h1v1H16zM18 6h1v1H18zM20 6h1v1H20zM22,6 h7v1H22zM8 7h2v1H8zM11 7h1v1H11zM14 7h1v1H14zM16 7h1v1H16zM18 7h2v1H18zM0 8h1v1H0zM2 8h5v1H2zM11 8h5v1H11zM17 8h1v1H17zM22 8h5v1H22zM1 9h1v1H1zM4 9h2v1H4zM9 9h1v1H9zM12 9h1v1H12zM14 9h1v1H14zM16 9h1v1H16zM18 9h7v1H18zM28,9 h1v1H28zM0 10h1v1H0zM2 10h2v1H2zM6 10h5v1H6zM12 10h1v1H12zM15 10h2v1H15zM20 10h1v1H20zM24 10h1v1H24zM0 11h2v1H0zM3 11h1v1H3zM5 11h1v1H5zM7 11h2v1H7zM11 11h1v1H11zM15 11h1v1H15zM23 11h3v1H23zM27 11h1v1H27zM0 12h3v1H0zM4 12h1v1H4zM6 12h6v1H6zM13 12h2v1H13zM17 12h1v1H17zM25 12h2v1H25zM5 13h1v1H5zM7 13h2v1H7zM11 13h2v1H11zM14 13h1v1H14zM16 13h9v1H16zM28,13 h1v1H28zM3 14h1v1H3zM6 14h4v1H6zM15 14h1v1H15zM20 14h1v1H20zM22 14h1v1H22zM24 14h3v1H24zM0 15h1v1H0zM2 15h2v1H2zM7 15h1v1H7zM9 15h2v1H9zM12 15h1v1H12zM15 15h2v1H15zM18 15h1v1H18zM20 15h4v1H20zM27 15h1v1H27zM0 16h8v1H0zM9 16h2v1H9zM12 16h2v1H12zM17 16h1v1H17zM19 16h1v1H19zM21 16h1v1H21zM25 16h2v1H25zM0 17h1v1H0zM2 17h1v1H2zM5 17h1v1H5zM10 17h2v1H10zM13 17h1v1H13zM16 17h1v1H16zM18 17h2v1H18zM21 17h4v1H21zM26 17h1v1H26zM28,17 h1v1H28zM0 18h1v1H0zM2 18h1v1H2zM4 18h1v1H4zM6 18h3v1H6zM11 18h1v1H11zM13 18h3v1H13zM20 18h1v1H20zM22 18h2v1H22zM26 18h1v1H26zM0 19h1v1H0zM2 19h2v1H2zM5 19h1v1H5zM8 19h1v1H8zM12 19h1v1H12zM14 19h3v1H14zM18 19h2v1H18zM23 19h1v1H23zM27 19h1v1H27zM0 20h1v1H0zM2 20h1v1H2zM5 20h3v1H5zM10 20h1v1H10zM12 20h1v1H12zM15 20h3v1H15zM19 20h6v1H19zM26,20 h3v1H26zM8 21h3v1H8zM13 21h1v1H13zM16 21h2v1H16zM20 21h1v1H20zM24,21 h5v1H24zM0 22h7v1H0zM10 22h2v1H10zM13 22h4v1H13zM18 22h3v1H18zM22 22h1v1H22zM24 22h3v1H24zM0 23h1v1H0zM6 23h1v1H6zM8 23h2v1H8zM13 23h1v1H13zM15 23h2v1H15zM19 23h2v1H19zM24 23h1v1H24zM0 24h1v1H0zM2 24h3v1H2zM6 24h1v1H6zM8 24h2v1H8zM11 24h2v1H11zM14 24h2v1H14zM17 24h2v1H17zM20 24h5v1H20zM26,24 h3v1H26zM0 25h1v1H0zM2 25h3v1H2zM6 25h1v1H6zM8 25h2v1H8zM11 25h3v1H11zM16 25h5v1H16zM25,25 h4v1H25zM0 26h1v1H0zM2 26h3v1H2zM6 26h1v1H6zM8 26h3v1H8zM12 26h4v1H12zM17 26h1v1H17zM19 26h2v1H19zM22 26h6v1H22zM0 27h1v1H0zM6 27h1v1H6zM11 27h1v1H11zM14 27h1v1H14zM16 27h1v1H16zM18 27h1v1H18zM20 27h1v1H20zM23 27h1v1H23zM25 27h1v1H25zM27 27h1v1H27zM0 28h7v1H0zM8 28h2v1H8zM11 28h4v1H11zM17 28h1v1H17zM19 28h1v1H19zM22 28h3v1H22zM26 28h1v1H26z" shape-rendering="crispEdges"/></svg>